<?xml version="1.0" ?><!DOCTYPE svg  PUBLIC '-//W3C//DTD SVG 1.1//EN'  'http://www.w3.org/Graphics/SVG/1.1/DTD/svg11.dtd'><!-- Uploaded to: SVG Repo, www.svgrepo.com, Generator: SVG Repo Mixer Tools -->
<svg width="800px" height="800px" viewBox="0 0 32 32" style="fill-rule:evenodd;clip-rule:evenodd;stroke-linejoin:round;stroke-miterlimit:2;" version="1.1" xml:space="preserve" xmlns="http://www.w3.org/2000/svg" xmlns:serif="http://www.serif.com/" xmlns:xlink="http://www.w3.org/1999/xlink"><path d="M24.939,30l-0,-22.435c-0,-3.369 -2.731,-6.1 -6.1,-6.1c-0.741,-0 -1.5,-0 -2.24,-0c-3.369,-0 -6.1,2.731 -6.1,6.1c-0,0.276 0.224,0.5 0.5,0.5c0.276,-0 0.5,-0.224 0.5,-0.5c-0,-2.817 2.283,-5.1 5.1,-5.1c0.74,-0 1.499,-0 2.24,-0c2.816,-0 5.1,2.283 5.1,5.1l-0,22.435c-0,0.276 0.224,0.5 0.5,0.5c0.276,0 0.5,-0.224 0.5,-0.5Z" style="fill:#32b2ff;"/><path d="M7.599,15.19c-0.083,-0.174 -0.259,-0.285 -0.452,-0.285c-0.192,-0 -0.368,0.111 -0.451,0.285c-0,-0 -1.169,2.504 -1.169,3.575c0,0.894 0.726,1.62 1.62,1.62c0.894,-0 1.62,-0.726 1.62,-1.62c0,-1.071 -1.168,-3.575 -1.168,-3.575Zm-0.452,1.441c-0.292,0.706 -0.62,1.611 -0.62,2.134c0,0.342 0.278,0.62 0.62,0.62c0.343,-0 0.62,-0.278 0.62,-0.62c0,-0.523 -0.327,-1.428 -0.62,-2.134Z" style="fill:#32b2ff;"/><path d="M14.53,17.43c-0.083,-0.174 -0.259,-0.285 -0.451,-0.285c-0.193,-0 -0.369,0.111 -0.452,0.285c0,-0 -0.888,1.916 -0.888,2.735c-0,0.739 0.6,1.34 1.34,1.34c0.739,-0 1.34,-0.601 1.34,-1.34c-0,-0.819 -0.889,-2.735 -0.889,-2.735Zm-0.451,1.463c-0.178,0.455 -0.34,0.958 -0.34,1.272c-0,0.187 0.152,0.34 0.34,0.34c0.187,-0 0.34,-0.153 0.34,-0.34c-0,-0.314 -0.163,-0.817 -0.34,-1.272Z" style="fill:#32b2ff;"/><path d="M11.291,13.785c-0.082,-0.174 -0.258,-0.285 -0.451,-0.285c-0.193,0 -0.369,0.111 -0.451,0.285c-0,0 -0.889,1.917 -0.889,2.735c0,0.74 0.6,1.34 1.34,1.34c0.74,-0 1.34,-0.6 1.34,-1.34c0,-0.818 -0.889,-2.735 -0.889,-2.735Zm-0.451,1.463c-0.178,0.456 -0.34,0.958 -0.34,1.272c0,0.188 0.152,0.34 0.34,0.34c0.188,-0 0.34,-0.152 0.34,-0.34c0,-0.314 -0.162,-0.816 -0.34,-1.272Z" style="fill:#32b2ff;"/><path d="M16.027,13.232c0.277,0 0.5,-0.223 0.5,-0.5c0,-3.035 -2.464,-5.5 -5.5,-5.5c-3.035,0 -5.5,2.465 -5.5,5.5c0,0.277 0.224,0.5 0.5,0.5l10,0Zm-0.527,-1c-0.249,-2.248 -2.158,-4 -4.473,-4c-2.314,0 -4.223,1.752 -4.472,4l8.945,0Z" style="fill:#32b2ff;"/></svg>